<svg width="630" height="129" viewBox="0 0 630 129" fill="none" xmlns="http://www.w3.org/2000/svg">
<path d="M79.647 110V124H74.927V118.84H70.567V124H65.847V110H70.567V114.96H74.927V110H79.647ZM84.9613 113.66H80.8613V110H93.7813V113.66H89.6813V124H84.9613V113.66ZM107.507 124L107.467 117.62L104.427 122.74H102.347L99.3072 117.84V124H95.0072V110H98.8872L103.447 117.46L107.887 110H111.767L111.807 124H107.507ZM114.089 110H118.809V120.34H125.129V124H114.089V110Z" fill="#7177F1"/>
<path d="M63.4295 81.0032L56.4219 0H133.422L126.405 80.9904L94.8751 90L63.4295 81.0032Z" fill="#E44F26"/>
<path d="M94.9219 83.1151L120.401 75.8347L126.396 6.62474H94.9219V83.1151Z" fill="#F1662A"/>
<path d="M94.9217 36.665H82.1663L81.2868 26.4918H94.9217V16.5565H70.752L70.9827 19.2243L73.3498 46.6004H94.9217V36.665Z" fill="#EBEBEB"/>
<path d="M94.9217 62.4663L94.8781 62.4791L84.1436 59.4931L83.4575 51.5699H73.7803L75.1307 67.1656L94.8781 72.8163L94.9217 72.8034V62.4663Z" fill="#EBEBEB"/>
<path d="M94.8877 36.6653V46.6007H106.757L105.641 59.4867L94.8877 62.476V72.8132L114.651 67.1657L114.794 65.4878L117.058 39.3332L117.295 36.6653H94.8877Z" fill="white"/>
<path d="M94.8877 16.5565V26.4918H118.172L118.365 24.2611L118.805 19.2243L119.036 16.5565H94.8877Z" fill="white"/>
<path d="M302.892 124.32C301.412 124.32 300.078 124.013 298.892 123.4C297.705 122.773 296.772 121.907 296.092 120.8C295.425 119.68 295.092 118.413 295.092 117C295.092 115.587 295.425 114.327 296.092 113.22C296.772 112.1 297.705 111.233 298.892 110.62C300.078 109.993 301.412 109.68 302.892 109.68C304.252 109.68 305.465 109.92 306.532 110.4C307.598 110.88 308.478 111.573 309.172 112.48L306.192 115.14C305.325 114.047 304.305 113.5 303.132 113.5C302.145 113.5 301.352 113.82 300.752 114.46C300.152 115.087 299.852 115.933 299.852 117C299.852 118.067 300.152 118.92 300.752 119.56C301.352 120.187 302.145 120.5 303.132 120.5C304.305 120.5 305.325 119.953 306.192 118.86L309.172 121.52C308.478 122.427 307.598 123.12 306.532 123.6C305.465 124.08 304.252 124.32 302.892 124.32ZM315.559 124.32C314.399 124.32 313.266 124.193 312.159 123.94C311.066 123.673 310.166 123.32 309.459 122.88L310.979 119.44C311.646 119.827 312.393 120.14 313.219 120.38C314.046 120.607 314.839 120.72 315.599 120.72C316.253 120.72 316.719 120.66 316.999 120.54C317.279 120.407 317.419 120.213 317.419 119.96C317.419 119.667 317.233 119.447 316.859 119.3C316.499 119.153 315.899 118.993 315.059 118.82C313.979 118.593 313.079 118.353 312.359 118.1C311.639 117.833 311.013 117.407 310.479 116.82C309.946 116.22 309.679 115.413 309.679 114.4C309.679 113.52 309.926 112.72 310.419 112C310.913 111.28 311.646 110.713 312.619 110.3C313.606 109.887 314.799 109.68 316.199 109.68C317.159 109.68 318.099 109.787 319.019 110C319.953 110.2 320.773 110.5 321.479 110.9L320.059 114.32C318.686 113.627 317.386 113.28 316.159 113.28C314.946 113.28 314.339 113.573 314.339 114.16C314.339 114.44 314.519 114.653 314.879 114.8C315.239 114.933 315.833 115.08 316.659 115.24C317.726 115.44 318.626 115.673 319.359 115.94C320.093 116.193 320.726 116.613 321.259 117.2C321.806 117.787 322.079 118.587 322.079 119.6C322.079 120.48 321.833 121.28 321.339 122C320.846 122.707 320.106 123.273 319.119 123.7C318.146 124.113 316.959 124.32 315.559 124.32ZM328.704 124.32C327.544 124.32 326.41 124.193 325.304 123.94C324.21 123.673 323.31 123.32 322.604 122.88L324.124 119.44C324.79 119.827 325.537 120.14 326.364 120.38C327.19 120.607 327.984 120.72 328.744 120.72C329.397 120.72 329.864 120.66 330.144 120.54C330.424 120.407 330.564 120.213 330.564 119.96C330.564 119.667 330.377 119.447 330.004 119.3C329.644 119.153 329.044 118.993 328.204 118.82C327.124 118.593 326.224 118.353 325.504 118.1C324.784 117.833 324.157 117.407 323.624 116.82C323.09 116.22 322.824 115.413 322.824 114.4C322.824 113.52 323.07 112.72 323.564 112C324.057 111.28 324.79 110.713 325.764 110.3C326.75 109.887 327.944 109.68 329.344 109.68C330.304 109.68 331.244 109.787 332.164 110C333.097 110.2 333.917 110.5 334.624 110.9L333.204 114.32C331.83 113.627 330.53 113.28 329.304 113.28C328.09 113.28 327.484 113.573 327.484 114.16C327.484 114.44 327.664 114.653 328.024 114.8C328.384 114.933 328.977 115.08 329.804 115.24C330.87 115.44 331.77 115.673 332.504 115.94C333.237 116.193 333.87 116.613 334.404 117.2C334.95 117.787 335.224 118.587 335.224 119.6C335.224 120.48 334.977 121.28 334.484 122C333.99 122.707 333.25 123.273 332.264 123.7C331.29 124.113 330.104 124.32 328.704 124.32Z" fill="#7177F1"/>
<path d="M282.005 81.0032L275 0H352L344.986 80.9904L313.453 90L282.005 81.0032Z" fill="#1572B6"/>
<path d="M313.5 83.115L338.982 75.8346L344.976 6.62468H313.5V83.115Z" fill="#33A9DC"/>
<path d="M313.5 35.9711H326.256L327.136 25.7979H313.5V15.8625H337.672L337.441 18.5272L335.074 45.9065H313.5V35.9711Z" fill="white"/>
<path d="M313.559 61.7722L313.516 61.7851L302.78 58.7958L302.094 50.8725H292.416L293.767 66.4715L313.512 72.1222L313.559 72.1094V61.7722Z" fill="#EBEBEB"/>
<path d="M325.437 45.4854L324.276 58.7893L313.525 61.7786V72.1157L333.287 66.4714L333.433 64.7936L335.108 45.4854H325.437Z" fill="white"/>
<path d="M313.535 15.8625V25.7979H290.249L290.055 23.564L289.616 18.5272L289.385 15.8625H313.535Z" fill="#EBEBEB"/>
<path d="M313.5 35.971V45.9064H302.899L302.706 43.6725L302.269 38.6357L302.038 35.971H313.5Z" fill="#EBEBEB"/>
<path d="M471.061 116.68C471.887 116.987 472.527 117.433 472.981 118.02C473.434 118.607 473.661 119.313 473.661 120.14C473.661 121.367 473.154 122.32 472.141 123C471.127 123.667 469.661 124 467.741 124H459.861V110H467.341C469.207 110 470.614 110.333 471.561 111C472.521 111.667 473.001 112.553 473.001 113.66C473.001 114.313 472.834 114.9 472.501 115.42C472.181 115.94 471.701 116.36 471.061 116.68ZM464.501 113.3V115.38H466.701C467.727 115.38 468.241 115.033 468.241 114.34C468.241 113.647 467.727 113.3 466.701 113.3H464.501ZM467.341 120.7C468.381 120.7 468.901 120.333 468.901 119.6C468.901 118.867 468.381 118.5 467.341 118.5H464.501V120.7H467.341ZM482.669 124.32C481.163 124.32 479.809 124.007 478.609 123.38C477.409 122.753 476.469 121.887 475.789 120.78C475.109 119.66 474.769 118.4 474.769 117C474.769 115.6 475.109 114.347 475.789 113.24C476.469 112.12 477.409 111.247 478.609 110.62C479.809 109.993 481.163 109.68 482.669 109.68C484.176 109.68 485.529 109.993 486.729 110.62C487.929 111.247 488.869 112.12 489.549 113.24C490.229 114.347 490.569 115.6 490.569 117C490.569 118.4 490.229 119.66 489.549 120.78C488.869 121.887 487.929 122.753 486.729 123.38C485.529 124.007 484.176 124.32 482.669 124.32ZM482.669 120.5C483.256 120.5 483.783 120.36 484.249 120.08C484.729 119.787 485.109 119.38 485.389 118.86C485.669 118.327 485.809 117.707 485.809 117C485.809 116.293 485.669 115.68 485.389 115.16C485.109 114.627 484.729 114.22 484.249 113.94C483.783 113.647 483.256 113.5 482.669 113.5C482.083 113.5 481.549 113.647 481.069 113.94C480.603 114.22 480.229 114.627 479.949 115.16C479.669 115.68 479.529 116.293 479.529 117C479.529 117.707 479.669 118.327 479.949 118.86C480.229 119.38 480.603 119.787 481.069 120.08C481.549 120.36 482.083 120.5 482.669 120.5ZM499.623 124.32C498.116 124.32 496.763 124.007 495.563 123.38C494.363 122.753 493.423 121.887 492.743 120.78C492.063 119.66 491.723 118.4 491.723 117C491.723 115.6 492.063 114.347 492.743 113.24C493.423 112.12 494.363 111.247 495.563 110.62C496.763 109.993 498.116 109.68 499.623 109.68C501.129 109.68 502.483 109.993 503.683 110.62C504.883 111.247 505.823 112.12 506.503 113.24C507.183 114.347 507.523 115.6 507.523 117C507.523 118.4 507.183 119.66 506.503 120.78C505.823 121.887 504.883 122.753 503.683 123.38C502.483 124.007 501.129 124.32 499.623 124.32ZM499.623 120.5C500.209 120.5 500.736 120.36 501.203 120.08C501.683 119.787 502.063 119.38 502.343 118.86C502.623 118.327 502.763 117.707 502.763 117C502.763 116.293 502.623 115.68 502.343 115.16C502.063 114.627 501.683 114.22 501.203 113.94C500.736 113.647 500.209 113.5 499.623 113.5C499.036 113.5 498.503 113.647 498.023 113.94C497.556 114.22 497.183 114.627 496.903 115.16C496.623 115.68 496.483 116.293 496.483 117C496.483 117.707 496.623 118.327 496.903 118.86C497.183 119.38 497.556 119.787 498.023 120.08C498.503 120.36 499.036 120.5 499.623 120.5ZM512.08 113.66H507.98V110H520.9V113.66H516.8V124H512.08V113.66ZM527.346 124.32C526.186 124.32 525.053 124.193 523.946 123.94C522.853 123.673 521.953 123.32 521.246 122.88L522.766 119.44C523.433 119.827 524.18 120.14 525.006 120.38C525.833 120.607 526.626 120.72 527.386 120.72C528.04 120.72 528.506 120.66 528.786 120.54C529.066 120.407 529.206 120.213 529.206 119.96C529.206 119.667 529.02 119.447 528.646 119.3C528.286 119.153 527.686 118.993 526.846 118.82C525.766 118.593 524.866 118.353 524.146 118.1C523.426 117.833 522.8 117.407 522.266 116.82C521.733 116.22 521.466 115.413 521.466 114.4C521.466 113.52 521.713 112.72 522.206 112C522.7 111.28 523.433 110.713 524.406 110.3C525.393 109.887 526.586 109.68 527.986 109.68C528.946 109.68 529.886 109.787 530.806 110C531.74 110.2 532.56 110.5 533.266 110.9L531.846 114.32C530.473 113.627 529.173 113.28 527.946 113.28C526.733 113.28 526.126 113.573 526.126 114.16C526.126 114.44 526.306 114.653 526.666 114.8C527.026 114.933 527.62 115.08 528.446 115.24C529.513 115.44 530.413 115.673 531.146 115.94C531.88 116.193 532.513 116.613 533.046 117.2C533.593 117.787 533.866 118.587 533.866 119.6C533.866 120.48 533.62 121.28 533.126 122C532.633 122.707 531.893 123.273 530.906 123.7C529.933 124.113 528.746 124.32 527.346 124.32ZM538.116 113.66H534.016V110H546.936V113.66H542.836V124H538.116V113.66ZM554.161 120.48H552.881V124H548.161V110H554.901C556.195 110 557.321 110.213 558.281 110.64C559.241 111.067 559.981 111.68 560.501 112.48C561.021 113.28 561.281 114.213 561.281 115.28C561.281 116.28 561.055 117.153 560.601 117.9C560.148 118.647 559.495 119.24 558.641 119.68L561.581 124H556.541L554.161 120.48ZM556.521 115.28C556.521 114.76 556.361 114.36 556.041 114.08C555.721 113.787 555.241 113.64 554.601 113.64H552.881V116.92H554.601C555.241 116.92 555.721 116.78 556.041 116.5C556.361 116.207 556.521 115.8 556.521 115.28ZM572.604 121.56H567.284L566.344 124H561.544L567.664 110H572.304L578.424 124H573.544L572.604 121.56ZM571.304 118.16L569.944 114.64L568.584 118.16H571.304ZM585.917 110C587.21 110 588.337 110.213 589.297 110.64C590.257 111.067 590.997 111.68 591.517 112.48C592.037 113.28 592.297 114.213 592.297 115.28C592.297 116.347 592.037 117.28 591.517 118.08C590.997 118.88 590.257 119.493 589.297 119.92C588.337 120.347 587.21 120.56 585.917 120.56H583.897V124H579.177V110H585.917ZM585.617 116.92C586.257 116.92 586.737 116.78 587.057 116.5C587.377 116.207 587.537 115.8 587.537 115.28C587.537 114.76 587.377 114.36 587.057 114.08C586.737 113.787 586.257 113.64 585.617 113.64H583.897V116.92H585.617ZM605.196 114.94C607.156 114.94 608.596 115.353 609.516 116.18C610.45 116.993 610.916 118.067 610.916 119.4C610.916 120.28 610.683 121.093 610.216 121.84C609.763 122.573 609.056 123.173 608.096 123.64C607.136 124.093 605.943 124.32 604.516 124.32C603.53 124.32 602.543 124.213 601.556 124C600.583 123.787 599.73 123.473 598.996 123.06L600.596 119.58C601.183 119.913 601.796 120.167 602.436 120.34C603.09 120.513 603.723 120.6 604.336 120.6C604.883 120.6 605.323 120.507 605.656 120.32C606.003 120.12 606.176 119.847 606.176 119.5C606.176 119.167 606.023 118.92 605.716 118.76C605.41 118.587 604.856 118.5 604.056 118.5H599.996L600.696 110H609.996V113.56H604.576L604.476 114.94H605.196Z" fill="#7177F1"/>
<path d="M565 0H505C501.025 0.00990093 497.215 1.59343 494.404 4.40434C491.593 7.21524 490.01 11.0248 490 15V75C490 83.25 496.75 90 505 90H565C573.25 90 580 83.25 580 75V15C580 6.75 573.25 0 565 0ZM556.799 63.2062C556.049 65.0137 554.86 66.6075 553.337 67.8338C551.762 69.1087 549.767 70.1588 547.311 70.9088C544.859 71.67 541.941 72.0525 538.562 72.0525H514.443V19.5525H539.95C544.667 19.5525 548.448 20.6137 551.275 22.7775C554.125 24.9525 555.543 28.1925 555.543 32.565C555.543 35.2088 554.897 37.4775 553.6 39.3525C552.31 41.2163 550.45 42.675 548.05 43.6875V43.86C551.252 44.535 553.731 46.0537 555.363 48.4163C556.994 50.7788 557.83 53.7638 557.83 57.3675C557.83 59.385 557.44 61.305 556.705 63.0975L556.799 63.1988V63.2062ZM546.389 50.2687C544.851 48.8625 542.691 48.1763 539.901 48.1763H523.694V64.5563H539.946C542.721 64.5563 544.896 63.8363 546.434 62.3813C547.971 60.9375 548.759 58.8787 548.759 56.2313C548.732 53.6437 547.971 51.6413 546.434 50.2687H546.37H546.389ZM544.139 39.6825C545.624 38.4225 546.351 36.6187 546.351 34.2675C546.351 31.6275 545.695 29.7525 544.364 28.68C543.044 27.6112 541.139 27.0563 538.634 27.0563H523.634V41.5425H538.634C540.82 41.5425 542.684 40.905 544.124 39.6825H544.139Z" fill="#790FF1"/>
</svg>
